<mxfile host="app.diagrams.net" agent="Mozilla/5.0 (Windows NT 10.0; Win64; x64) AppleWebKit/537.36 (KHTML, like Gecko) Chrome/131.0.0.0 Safari/537.36" version="26.0.1">
  <diagram name="Page-1" id="03018318-947c-dd8e-b7a3-06fadd420f32">
    <mxGraphModel dx="3354" dy="1258" grid="1" gridSize="10" guides="1" tooltips="1" connect="1" arrows="1" fold="1" page="1" pageScale="1" pageWidth="1100" pageHeight="850" background="none" math="0" shadow="0">
      <root>
        <mxCell id="0" />
        <mxCell id="1" parent="0" />
        <mxCell id="677b7b8949515195-1" value="" style="whiteSpace=wrap;html=1;rounded=0;shadow=0;labelBackgroundColor=none;strokeColor=#000000;strokeWidth=1;fillColor=none;fontFamily=Verdana;fontSize=12;fontColor=#000000;align=center;comic=1;" parent="1" vertex="1">
          <mxGeometry x="20" y="40" width="1060" height="790" as="geometry" />
        </mxCell>
        <mxCell id="677b7b8949515195-4" value="Manage" style="text;html=1;points=[];align=left;verticalAlign=top;spacingTop=-4;fontSize=14;fontFamily=Verdana" parent="1" vertex="1">
          <mxGeometry x="756.85" y="100" width="60" height="20" as="geometry" />
        </mxCell>
        <mxCell id="677b7b8949515195-5" value="Schedule" style="text;html=1;points=[];align=left;verticalAlign=top;spacingTop=-4;fontSize=14;fontFamily=Verdana" parent="1" vertex="1">
          <mxGeometry x="920" y="60" width="60" height="20" as="geometry" />
        </mxCell>
        <mxCell id="677b7b8949515195-6" value="Students" style="text;html=1;points=[];align=left;verticalAlign=top;spacingTop=-4;fontSize=14;fontFamily=Verdana" parent="1" vertex="1">
          <mxGeometry x="833.6999999999999" y="100" width="60" height="20" as="geometry" />
        </mxCell>
        <mxCell id="677b7b8949515195-7" value="Logout" style="text;html=1;points=[];align=left;verticalAlign=top;spacingTop=-4;fontSize=14;fontFamily=Verdana" parent="1" vertex="1">
          <mxGeometry x="1010" y="100" width="60" height="20" as="geometry" />
        </mxCell>
        <mxCell id="677b7b8949515195-9" value="" style="line;strokeWidth=1;html=1;rounded=0;shadow=0;labelBackgroundColor=none;fillColor=none;fontFamily=Verdana;fontSize=14;fontColor=#000000;align=center;comic=1;" parent="1" vertex="1">
          <mxGeometry x="20" y="140" width="1060" height="10" as="geometry" />
        </mxCell>
        <mxCell id="677b7b8949515195-10" value="" style="whiteSpace=wrap;html=1;rounded=0;shadow=0;labelBackgroundColor=none;strokeWidth=1;fillColor=none;fontFamily=Verdana;fontSize=12;align=center;comic=1;" parent="1" vertex="1">
          <mxGeometry x="30" y="200" width="1040" height="50" as="geometry" />
        </mxCell>
        <mxCell id="677b7b8949515195-15" value="&lt;div style=&quot;&quot;&gt;&lt;font style=&quot;font-size: 18px;&quot;&gt;by Thomas Roth&lt;/font&gt;&lt;/div&gt;" style="whiteSpace=wrap;html=1;rounded=0;shadow=0;labelBackgroundColor=none;strokeWidth=1;fillColor=none;fontFamily=Verdana;fontSize=12;align=left;verticalAlign=top;spacing=10;comic=1;" parent="1" vertex="1">
          <mxGeometry x="20" y="700" width="580" height="130" as="geometry" />
        </mxCell>
        <mxCell id="677b7b8949515195-26" value="" style="whiteSpace=wrap;html=1;rounded=0;shadow=0;labelBackgroundColor=none;strokeWidth=1;fillColor=none;fontFamily=Verdana;fontSize=12;align=center;comic=1;" parent="1" vertex="1">
          <mxGeometry x="600" y="700" width="480" height="130" as="geometry" />
        </mxCell>
        <mxCell id="677b7b8949515195-42" value="External Links" style="text;html=1;points=[];align=left;verticalAlign=top;spacingTop=-4;fontSize=14;fontFamily=Verdana" parent="1" vertex="1">
          <mxGeometry x="640" y="718.68" width="170" height="20" as="geometry" />
        </mxCell>
        <mxCell id="xNktOV-b6tnxYs5pCYwV-17" value="" style="dashed=0;outlineConnect=0;html=1;align=center;labelPosition=center;verticalLabelPosition=bottom;verticalAlign=top;shape=mxgraph.webicons.github;gradientColor=#DFDEDE" parent="1" vertex="1">
          <mxGeometry x="650" y="748.68" width="42.4" height="42.4" as="geometry" />
        </mxCell>
        <mxCell id="xNktOV-b6tnxYs5pCYwV-18" value="" style="dashed=0;outlineConnect=0;html=1;align=center;labelPosition=center;verticalLabelPosition=bottom;verticalAlign=top;shape=mxgraph.weblogos.linkedin;fillColor=#0095DB;gradientColor=#006391" parent="1" vertex="1">
          <mxGeometry x="860" y="748.91" width="27.4" height="28.93" as="geometry" />
        </mxCell>
        <mxCell id="xNktOV-b6tnxYs5pCYwV-19" value="My Github" style="text;html=1;align=left;verticalAlign=middle;whiteSpace=wrap;rounded=0;" parent="1" vertex="1">
          <mxGeometry x="692.4" y="754.88" width="60" height="30" as="geometry" />
        </mxCell>
        <mxCell id="xNktOV-b6tnxYs5pCYwV-20" value="&lt;font style=&quot;font-size: 18px;&quot;&gt;Contact Me&lt;/font&gt;" style="text;strokeColor=none;fillColor=none;html=1;fontSize=24;fontStyle=1;verticalAlign=middle;align=center;" parent="1" vertex="1">
          <mxGeometry x="820" y="708.91" width="100" height="40" as="geometry" />
        </mxCell>
        <mxCell id="xNktOV-b6tnxYs5pCYwV-22" value="" style="shape=message;html=1;html=1;outlineConnect=0;labelPosition=center;verticalLabelPosition=bottom;align=center;verticalAlign=top;" parent="1" vertex="1">
          <mxGeometry x="853.7" y="793.25" width="40" height="25.66" as="geometry" />
        </mxCell>
        <mxCell id="xNktOV-b6tnxYs5pCYwV-23" value="Linked In" style="text;html=1;align=center;verticalAlign=middle;whiteSpace=wrap;rounded=0;" parent="1" vertex="1">
          <mxGeometry x="900" y="752.17" width="60" height="30" as="geometry" />
        </mxCell>
        <mxCell id="xNktOV-b6tnxYs5pCYwV-24" value="thomas.roth@aon.at" style="text;html=1;align=center;verticalAlign=middle;whiteSpace=wrap;rounded=0;" parent="1" vertex="1">
          <mxGeometry x="930" y="791.0799999999999" width="60" height="30" as="geometry" />
        </mxCell>
        <mxCell id="z-67hpvK6l74vBA2kNS7-2" value="" style="line;strokeWidth=2;html=1;" parent="1" vertex="1">
          <mxGeometry x="753.7" y="120" width="66.3" height="10" as="geometry" />
        </mxCell>
        <mxCell id="HjhiuZLruFTGGM_Ddv_2-103" value="" style="verticalLabelPosition=bottom;shadow=0;dashed=0;align=center;html=1;verticalAlign=top;strokeWidth=1;shape=mxgraph.mockup.navigation.scrollBar;strokeColor=#999999;barPos=98.611;fillColor2=#99ddff;strokeColor2=none;direction=north;" parent="1" vertex="1">
          <mxGeometry x="1050" y="260" width="20" height="422" as="geometry" />
        </mxCell>
        <mxCell id="HjhiuZLruFTGGM_Ddv_2-104" value="&lt;font style=&quot;font-size: 16px;&quot;&gt;Order By:&lt;/font&gt;" style="text;html=1;align=center;verticalAlign=middle;whiteSpace=wrap;rounded=0;" parent="1" vertex="1">
          <mxGeometry x="40" y="207.5" width="90" height="30" as="geometry" />
        </mxCell>
        <mxCell id="HjhiuZLruFTGGM_Ddv_2-106" value="&lt;font style=&quot;font-size: 20px;&quot;&gt;Start Date&lt;/font&gt;" style="html=1;shadow=0;dashed=0;shape=mxgraph.bootstrap.rrect;rSize=5;strokeColor=none;strokeWidth=1;fillColor=#6C767D;fontColor=#ffffff;whiteSpace=wrap;align=right;verticalAlign=middle;fontStyle=0;fontSize=14;spacingRight=20;" parent="1" vertex="1">
          <mxGeometry x="120" y="205" width="140" height="35" as="geometry" />
        </mxCell>
        <mxCell id="HjhiuZLruFTGGM_Ddv_2-107" value="" style="shape=triangle;direction=south;fillColor=#ffffff;strokeColor=none;perimeter=none;" parent="HjhiuZLruFTGGM_Ddv_2-106" vertex="1">
          <mxGeometry x="1" y="0.5" width="10" height="5" relative="1" as="geometry">
            <mxPoint x="-17" y="-2.5" as="offset" />
          </mxGeometry>
        </mxCell>
        <mxCell id="HjhiuZLruFTGGM_Ddv_2-158" value="&lt;font face=&quot;Tahoma&quot; style=&quot;font-size: 48px;&quot;&gt;&lt;i style=&quot;&quot;&gt;4th Wall Academy&lt;/i&gt;&lt;/font&gt;" style="text;strokeColor=none;fillColor=none;html=1;fontSize=24;fontStyle=1;verticalAlign=middle;align=center;" parent="1" vertex="1">
          <mxGeometry x="80" y="50" width="360" height="70" as="geometry" />
        </mxCell>
        <mxCell id="cM_1RGHnX2dDhWGxMnlk-1" value="Dashboard" style="text;html=1;points=[];align=left;verticalAlign=top;spacingTop=-4;fontSize=14;fontFamily=Verdana" parent="1" vertex="1">
          <mxGeometry x="919.9999999999999" y="100" width="60" height="20" as="geometry" />
        </mxCell>
        <mxCell id="tO5tG9X41Wg9TqtgTlxJ-1" value="Courses" style="html=1;shadow=0;dashed=0;shape=mxgraph.bootstrap.rrect;rSize=5;strokeColor=none;strokeWidth=1;fillColor=none;fontColor=#0085FC;whiteSpace=wrap;align=center;verticalAlign=middle;spacingLeft=0;fontStyle=0;fontSize=16;spacing=5;" parent="1" vertex="1">
          <mxGeometry x="739.35" y="205" width="95" height="40" as="geometry" />
        </mxCell>
        <mxCell id="tO5tG9X41Wg9TqtgTlxJ-2" value="Sections" style="html=1;shadow=0;dashed=0;shape=mxgraph.bootstrap.rrect;rSize=5;strokeColor=none;strokeWidth=1;fillColor=none;fontColor=#0085FC;whiteSpace=wrap;align=center;verticalAlign=middle;spacingLeft=0;fontStyle=0;fontSize=16;spacing=5;" parent="1" vertex="1">
          <mxGeometry x="850" y="206" width="95" height="40" as="geometry" />
        </mxCell>
        <mxCell id="tO5tG9X41Wg9TqtgTlxJ-3" value="Instructors" style="html=1;shadow=0;dashed=0;shape=mxgraph.bootstrap.rrect;rSize=5;strokeColor=none;strokeWidth=1;fillColor=none;fontColor=#0085FC;whiteSpace=wrap;align=center;verticalAlign=middle;spacingLeft=0;fontStyle=0;fontSize=16;spacing=5;" parent="1" vertex="1">
          <mxGeometry x="960" y="206" width="95" height="40" as="geometry" />
        </mxCell>
        <mxCell id="tO5tG9X41Wg9TqtgTlxJ-4" value="" style="line;strokeWidth=2;html=1;strokeColor=#3399FF;" parent="1" vertex="1">
          <mxGeometry x="855.9200000000001" y="231" width="83.15" height="10" as="geometry" />
        </mxCell>
        <mxCell id="tO5tG9X41Wg9TqtgTlxJ-61" value="Advanced Power Mastery" style="shape=table;startSize=40;container=1;collapsible=0;childLayout=tableLayout;strokeColor=default;fontSize=18;fontStyle=1" parent="1" vertex="1">
          <mxGeometry x="40" y="306" width="990" height="292" as="geometry" />
        </mxCell>
        <mxCell id="tO5tG9X41Wg9TqtgTlxJ-62" value="" style="shape=tableRow;horizontal=0;startSize=0;swimlaneHead=0;swimlaneBody=0;strokeColor=inherit;top=0;left=0;bottom=0;right=0;collapsible=0;dropTarget=0;fillColor=none;points=[[0,0.5],[1,0.5]];portConstraint=eastwest;fontSize=16;" parent="tO5tG9X41Wg9TqtgTlxJ-61" vertex="1">
          <mxGeometry y="40" width="990" height="42" as="geometry" />
        </mxCell>
        <mxCell id="tO5tG9X41Wg9TqtgTlxJ-63" value="&lt;b&gt;Instructor&lt;/b&gt;" style="shape=partialRectangle;html=1;whiteSpace=wrap;connectable=0;strokeColor=inherit;overflow=hidden;fillColor=none;top=0;left=0;bottom=0;right=0;pointerEvents=1;fontSize=16;" parent="tO5tG9X41Wg9TqtgTlxJ-62" vertex="1">
          <mxGeometry width="248" height="42" as="geometry">
            <mxRectangle width="248" height="42" as="alternateBounds" />
          </mxGeometry>
        </mxCell>
        <mxCell id="tO5tG9X41Wg9TqtgTlxJ-64" value="&lt;b&gt;From - To&lt;/b&gt;" style="shape=partialRectangle;html=1;whiteSpace=wrap;connectable=0;strokeColor=inherit;overflow=hidden;fillColor=none;top=0;left=0;bottom=0;right=0;pointerEvents=1;fontSize=16;" parent="tO5tG9X41Wg9TqtgTlxJ-62" vertex="1">
          <mxGeometry x="248" width="302" height="42" as="geometry">
            <mxRectangle width="302" height="42" as="alternateBounds" />
          </mxGeometry>
        </mxCell>
        <mxCell id="tO5tG9X41Wg9TqtgTlxJ-65" value="&lt;b&gt;Start Time&lt;/b&gt;" style="shape=partialRectangle;html=1;whiteSpace=wrap;connectable=0;strokeColor=inherit;overflow=hidden;fillColor=none;top=0;left=0;bottom=0;right=0;pointerEvents=1;fontSize=16;" parent="tO5tG9X41Wg9TqtgTlxJ-62" vertex="1">
          <mxGeometry x="550" width="193" height="42" as="geometry">
            <mxRectangle width="193" height="42" as="alternateBounds" />
          </mxGeometry>
        </mxCell>
        <mxCell id="tO5tG9X41Wg9TqtgTlxJ-74" value="&lt;font color=&quot;#3399ff&quot;&gt;Details&lt;/font&gt;" style="shape=partialRectangle;html=1;whiteSpace=wrap;connectable=0;strokeColor=inherit;overflow=hidden;fillColor=none;top=0;left=0;bottom=0;right=0;pointerEvents=1;fontSize=16;" parent="tO5tG9X41Wg9TqtgTlxJ-62" vertex="1">
          <mxGeometry x="743" width="247" height="42" as="geometry">
            <mxRectangle width="247" height="42" as="alternateBounds" />
          </mxGeometry>
        </mxCell>
        <mxCell id="tO5tG9X41Wg9TqtgTlxJ-66" value="" style="shape=tableRow;horizontal=0;startSize=0;swimlaneHead=0;swimlaneBody=0;strokeColor=inherit;top=0;left=0;bottom=0;right=0;collapsible=0;dropTarget=0;fillColor=none;points=[[0,0.5],[1,0.5]];portConstraint=eastwest;fontSize=16;" parent="tO5tG9X41Wg9TqtgTlxJ-61" vertex="1">
          <mxGeometry y="82" width="990" height="41" as="geometry" />
        </mxCell>
        <mxCell id="tO5tG9X41Wg9TqtgTlxJ-67" value="Titanium Templar" style="shape=partialRectangle;html=1;whiteSpace=wrap;connectable=0;strokeColor=inherit;overflow=hidden;fillColor=none;top=0;left=0;bottom=0;right=0;pointerEvents=1;fontSize=16;" parent="tO5tG9X41Wg9TqtgTlxJ-66" vertex="1">
          <mxGeometry width="248" height="41" as="geometry">
            <mxRectangle width="248" height="41" as="alternateBounds" />
          </mxGeometry>
        </mxCell>
        <mxCell id="tO5tG9X41Wg9TqtgTlxJ-68" value="2022-09-01 -&amp;nbsp;2022-12-31" style="shape=partialRectangle;html=1;whiteSpace=wrap;connectable=0;strokeColor=inherit;overflow=hidden;fillColor=none;top=0;left=0;bottom=0;right=0;pointerEvents=1;fontSize=16;" parent="tO5tG9X41Wg9TqtgTlxJ-66" vertex="1">
          <mxGeometry x="248" width="302" height="41" as="geometry">
            <mxRectangle width="302" height="41" as="alternateBounds" />
          </mxGeometry>
        </mxCell>
        <mxCell id="tO5tG9X41Wg9TqtgTlxJ-69" value="11:00:00" style="shape=partialRectangle;html=1;whiteSpace=wrap;connectable=0;strokeColor=inherit;overflow=hidden;fillColor=none;top=0;left=0;bottom=0;right=0;pointerEvents=1;fontSize=16;" parent="tO5tG9X41Wg9TqtgTlxJ-66" vertex="1">
          <mxGeometry x="550" width="193" height="41" as="geometry">
            <mxRectangle width="193" height="41" as="alternateBounds" />
          </mxGeometry>
        </mxCell>
        <mxCell id="tO5tG9X41Wg9TqtgTlxJ-75" value="&lt;span style=&quot;color: rgb(51, 153, 255);&quot;&gt;Details&lt;/span&gt;" style="shape=partialRectangle;html=1;whiteSpace=wrap;connectable=0;strokeColor=inherit;overflow=hidden;fillColor=none;top=0;left=0;bottom=0;right=0;pointerEvents=1;fontSize=16;" parent="tO5tG9X41Wg9TqtgTlxJ-66" vertex="1">
          <mxGeometry x="743" width="247" height="41" as="geometry">
            <mxRectangle width="247" height="41" as="alternateBounds" />
          </mxGeometry>
        </mxCell>
        <mxCell id="tO5tG9X41Wg9TqtgTlxJ-70" value="" style="shape=tableRow;horizontal=0;startSize=0;swimlaneHead=0;swimlaneBody=0;strokeColor=inherit;top=0;left=0;bottom=0;right=0;collapsible=0;dropTarget=0;fillColor=none;points=[[0,0.5],[1,0.5]];portConstraint=eastwest;fontSize=16;" parent="tO5tG9X41Wg9TqtgTlxJ-61" vertex="1">
          <mxGeometry y="123" width="990" height="42" as="geometry" />
        </mxCell>
        <mxCell id="tO5tG9X41Wg9TqtgTlxJ-71" value="Siren Song" style="shape=partialRectangle;html=1;whiteSpace=wrap;connectable=0;strokeColor=inherit;overflow=hidden;fillColor=none;top=0;left=0;bottom=0;right=0;pointerEvents=1;fontSize=16;" parent="tO5tG9X41Wg9TqtgTlxJ-70" vertex="1">
          <mxGeometry width="248" height="42" as="geometry">
            <mxRectangle width="248" height="42" as="alternateBounds" />
          </mxGeometry>
        </mxCell>
        <mxCell id="tO5tG9X41Wg9TqtgTlxJ-72" value="2022-09-01 -&amp;nbsp;2022-12-31" style="shape=partialRectangle;html=1;whiteSpace=wrap;connectable=0;strokeColor=inherit;overflow=hidden;fillColor=none;top=0;left=0;bottom=0;right=0;pointerEvents=1;fontSize=16;" parent="tO5tG9X41Wg9TqtgTlxJ-70" vertex="1">
          <mxGeometry x="248" width="302" height="42" as="geometry">
            <mxRectangle width="302" height="42" as="alternateBounds" />
          </mxGeometry>
        </mxCell>
        <mxCell id="tO5tG9X41Wg9TqtgTlxJ-73" value="15:00:00" style="shape=partialRectangle;html=1;whiteSpace=wrap;connectable=0;strokeColor=inherit;overflow=hidden;fillColor=none;top=0;left=0;bottom=0;right=0;pointerEvents=1;fontSize=16;" parent="tO5tG9X41Wg9TqtgTlxJ-70" vertex="1">
          <mxGeometry x="550" width="193" height="42" as="geometry">
            <mxRectangle width="193" height="42" as="alternateBounds" />
          </mxGeometry>
        </mxCell>
        <mxCell id="tO5tG9X41Wg9TqtgTlxJ-76" value="&lt;span style=&quot;color: rgb(51, 153, 255);&quot;&gt;Details&lt;/span&gt;" style="shape=partialRectangle;html=1;whiteSpace=wrap;connectable=0;strokeColor=inherit;overflow=hidden;fillColor=none;top=0;left=0;bottom=0;right=0;pointerEvents=1;fontSize=16;" parent="tO5tG9X41Wg9TqtgTlxJ-70" vertex="1">
          <mxGeometry x="743" width="247" height="42" as="geometry">
            <mxRectangle width="247" height="42" as="alternateBounds" />
          </mxGeometry>
        </mxCell>
        <mxCell id="tO5tG9X41Wg9TqtgTlxJ-80" style="shape=tableRow;horizontal=0;startSize=0;swimlaneHead=0;swimlaneBody=0;strokeColor=inherit;top=0;left=0;bottom=0;right=0;collapsible=0;dropTarget=0;fillColor=none;points=[[0,0.5],[1,0.5]];portConstraint=eastwest;fontSize=16;" parent="tO5tG9X41Wg9TqtgTlxJ-61" vertex="1">
          <mxGeometry y="165" width="990" height="42" as="geometry" />
        </mxCell>
        <mxCell id="tO5tG9X41Wg9TqtgTlxJ-81" value="Titanium Templar" style="shape=partialRectangle;html=1;whiteSpace=wrap;connectable=0;strokeColor=inherit;overflow=hidden;fillColor=none;top=0;left=0;bottom=0;right=0;pointerEvents=1;fontSize=16;" parent="tO5tG9X41Wg9TqtgTlxJ-80" vertex="1">
          <mxGeometry width="248" height="42" as="geometry">
            <mxRectangle width="248" height="42" as="alternateBounds" />
          </mxGeometry>
        </mxCell>
        <mxCell id="tO5tG9X41Wg9TqtgTlxJ-82" value="2023-01-01 -&amp;nbsp;2023-03-31" style="shape=partialRectangle;html=1;whiteSpace=wrap;connectable=0;strokeColor=inherit;overflow=hidden;fillColor=none;top=0;left=0;bottom=0;right=0;pointerEvents=1;fontSize=16;" parent="tO5tG9X41Wg9TqtgTlxJ-80" vertex="1">
          <mxGeometry x="248" width="302" height="42" as="geometry">
            <mxRectangle width="302" height="42" as="alternateBounds" />
          </mxGeometry>
        </mxCell>
        <mxCell id="tO5tG9X41Wg9TqtgTlxJ-83" value="11:00:00" style="shape=partialRectangle;html=1;whiteSpace=wrap;connectable=0;strokeColor=inherit;overflow=hidden;fillColor=none;top=0;left=0;bottom=0;right=0;pointerEvents=1;fontSize=16;" parent="tO5tG9X41Wg9TqtgTlxJ-80" vertex="1">
          <mxGeometry x="550" width="193" height="42" as="geometry">
            <mxRectangle width="193" height="42" as="alternateBounds" />
          </mxGeometry>
        </mxCell>
        <mxCell id="tO5tG9X41Wg9TqtgTlxJ-84" value="&lt;span style=&quot;color: rgb(51, 153, 255);&quot;&gt;Details&lt;/span&gt;" style="shape=partialRectangle;html=1;whiteSpace=wrap;connectable=0;strokeColor=inherit;overflow=hidden;fillColor=none;top=0;left=0;bottom=0;right=0;pointerEvents=1;fontSize=16;" parent="tO5tG9X41Wg9TqtgTlxJ-80" vertex="1">
          <mxGeometry x="743" width="247" height="42" as="geometry">
            <mxRectangle width="247" height="42" as="alternateBounds" />
          </mxGeometry>
        </mxCell>
        <mxCell id="tO5tG9X41Wg9TqtgTlxJ-85" style="shape=tableRow;horizontal=0;startSize=0;swimlaneHead=0;swimlaneBody=0;strokeColor=inherit;top=0;left=0;bottom=0;right=0;collapsible=0;dropTarget=0;fillColor=none;points=[[0,0.5],[1,0.5]];portConstraint=eastwest;fontSize=16;" parent="tO5tG9X41Wg9TqtgTlxJ-61" vertex="1">
          <mxGeometry y="207" width="990" height="43" as="geometry" />
        </mxCell>
        <mxCell id="tO5tG9X41Wg9TqtgTlxJ-86" value="Siren Song" style="shape=partialRectangle;html=1;whiteSpace=wrap;connectable=0;strokeColor=inherit;overflow=hidden;fillColor=none;top=0;left=0;bottom=0;right=0;pointerEvents=1;fontSize=16;" parent="tO5tG9X41Wg9TqtgTlxJ-85" vertex="1">
          <mxGeometry width="248" height="43" as="geometry">
            <mxRectangle width="248" height="43" as="alternateBounds" />
          </mxGeometry>
        </mxCell>
        <mxCell id="tO5tG9X41Wg9TqtgTlxJ-87" value="2023-01-01 -&amp;nbsp;2023-03-31" style="shape=partialRectangle;html=1;whiteSpace=wrap;connectable=0;strokeColor=inherit;overflow=hidden;fillColor=none;top=0;left=0;bottom=0;right=0;pointerEvents=1;fontSize=16;" parent="tO5tG9X41Wg9TqtgTlxJ-85" vertex="1">
          <mxGeometry x="248" width="302" height="43" as="geometry">
            <mxRectangle width="302" height="43" as="alternateBounds" />
          </mxGeometry>
        </mxCell>
        <mxCell id="tO5tG9X41Wg9TqtgTlxJ-88" value="15:00:00" style="shape=partialRectangle;html=1;whiteSpace=wrap;connectable=0;strokeColor=inherit;overflow=hidden;fillColor=none;top=0;left=0;bottom=0;right=0;pointerEvents=1;fontSize=16;" parent="tO5tG9X41Wg9TqtgTlxJ-85" vertex="1">
          <mxGeometry x="550" width="193" height="43" as="geometry">
            <mxRectangle width="193" height="43" as="alternateBounds" />
          </mxGeometry>
        </mxCell>
        <mxCell id="tO5tG9X41Wg9TqtgTlxJ-89" value="&lt;span style=&quot;color: rgb(51, 153, 255);&quot;&gt;Details&lt;/span&gt;" style="shape=partialRectangle;html=1;whiteSpace=wrap;connectable=0;strokeColor=inherit;overflow=hidden;fillColor=none;top=0;left=0;bottom=0;right=0;pointerEvents=1;fontSize=16;" parent="tO5tG9X41Wg9TqtgTlxJ-85" vertex="1">
          <mxGeometry x="743" width="247" height="43" as="geometry">
            <mxRectangle width="247" height="43" as="alternateBounds" />
          </mxGeometry>
        </mxCell>
        <mxCell id="tO5tG9X41Wg9TqtgTlxJ-90" style="shape=tableRow;horizontal=0;startSize=0;swimlaneHead=0;swimlaneBody=0;strokeColor=inherit;top=0;left=0;bottom=0;right=0;collapsible=0;dropTarget=0;fillColor=none;points=[[0,0.5],[1,0.5]];portConstraint=eastwest;fontSize=16;" parent="tO5tG9X41Wg9TqtgTlxJ-61" vertex="1">
          <mxGeometry y="250" width="990" height="42" as="geometry" />
        </mxCell>
        <mxCell id="tO5tG9X41Wg9TqtgTlxJ-91" value="Siren Song" style="shape=partialRectangle;html=1;whiteSpace=wrap;connectable=0;strokeColor=inherit;overflow=hidden;fillColor=none;top=0;left=0;bottom=0;right=0;pointerEvents=1;fontSize=16;" parent="tO5tG9X41Wg9TqtgTlxJ-90" vertex="1">
          <mxGeometry width="248" height="42" as="geometry">
            <mxRectangle width="248" height="42" as="alternateBounds" />
          </mxGeometry>
        </mxCell>
        <mxCell id="tO5tG9X41Wg9TqtgTlxJ-92" value="2023-04-01 - 2023-06-30" style="shape=partialRectangle;html=1;whiteSpace=wrap;connectable=0;strokeColor=inherit;overflow=hidden;fillColor=none;top=0;left=0;bottom=0;right=0;pointerEvents=1;fontSize=16;" parent="tO5tG9X41Wg9TqtgTlxJ-90" vertex="1">
          <mxGeometry x="248" width="302" height="42" as="geometry">
            <mxRectangle width="302" height="42" as="alternateBounds" />
          </mxGeometry>
        </mxCell>
        <mxCell id="tO5tG9X41Wg9TqtgTlxJ-93" value="15:00:00" style="shape=partialRectangle;html=1;whiteSpace=wrap;connectable=0;strokeColor=inherit;overflow=hidden;fillColor=none;top=0;left=0;bottom=0;right=0;pointerEvents=1;fontSize=16;" parent="tO5tG9X41Wg9TqtgTlxJ-90" vertex="1">
          <mxGeometry x="550" width="193" height="42" as="geometry">
            <mxRectangle width="193" height="42" as="alternateBounds" />
          </mxGeometry>
        </mxCell>
        <mxCell id="tO5tG9X41Wg9TqtgTlxJ-94" value="&lt;span style=&quot;color: rgb(51, 153, 255);&quot;&gt;Details&lt;/span&gt;" style="shape=partialRectangle;html=1;whiteSpace=wrap;connectable=0;strokeColor=inherit;overflow=hidden;fillColor=none;top=0;left=0;bottom=0;right=0;pointerEvents=1;fontSize=16;" parent="tO5tG9X41Wg9TqtgTlxJ-90" vertex="1">
          <mxGeometry x="743" width="247" height="42" as="geometry">
            <mxRectangle width="247" height="42" as="alternateBounds" />
          </mxGeometry>
        </mxCell>
        <mxCell id="tO5tG9X41Wg9TqtgTlxJ-95" value="Advanced Tech Integration" style="shape=table;startSize=40;container=1;collapsible=0;childLayout=tableLayout;strokeColor=default;fontSize=18;fontStyle=1" parent="1" vertex="1">
          <mxGeometry x="40" y="610" width="990" height="79" as="geometry" />
        </mxCell>
        <mxCell id="tO5tG9X41Wg9TqtgTlxJ-96" value="" style="shape=tableRow;horizontal=0;startSize=0;swimlaneHead=0;swimlaneBody=0;strokeColor=inherit;top=0;left=0;bottom=0;right=0;collapsible=0;dropTarget=0;fillColor=none;points=[[0,0.5],[1,0.5]];portConstraint=eastwest;fontSize=16;" parent="tO5tG9X41Wg9TqtgTlxJ-95" vertex="1">
          <mxGeometry y="40" width="990" height="39" as="geometry" />
        </mxCell>
        <mxCell id="tO5tG9X41Wg9TqtgTlxJ-97" value="&lt;b&gt;Instructor&lt;/b&gt;" style="shape=partialRectangle;html=1;whiteSpace=wrap;connectable=0;strokeColor=inherit;overflow=hidden;fillColor=none;top=0;left=0;bottom=0;right=0;pointerEvents=1;fontSize=16;" parent="tO5tG9X41Wg9TqtgTlxJ-96" vertex="1">
          <mxGeometry width="248" height="39" as="geometry">
            <mxRectangle width="248" height="39" as="alternateBounds" />
          </mxGeometry>
        </mxCell>
        <mxCell id="tO5tG9X41Wg9TqtgTlxJ-98" value="&lt;b&gt;From - To&lt;/b&gt;" style="shape=partialRectangle;html=1;whiteSpace=wrap;connectable=0;strokeColor=inherit;overflow=hidden;fillColor=none;top=0;left=0;bottom=0;right=0;pointerEvents=1;fontSize=16;" parent="tO5tG9X41Wg9TqtgTlxJ-96" vertex="1">
          <mxGeometry x="248" width="302" height="39" as="geometry">
            <mxRectangle width="302" height="39" as="alternateBounds" />
          </mxGeometry>
        </mxCell>
        <mxCell id="tO5tG9X41Wg9TqtgTlxJ-99" value="&lt;b&gt;Start Time&lt;/b&gt;" style="shape=partialRectangle;html=1;whiteSpace=wrap;connectable=0;strokeColor=inherit;overflow=hidden;fillColor=none;top=0;left=0;bottom=0;right=0;pointerEvents=1;fontSize=16;" parent="tO5tG9X41Wg9TqtgTlxJ-96" vertex="1">
          <mxGeometry x="550" width="193" height="39" as="geometry">
            <mxRectangle width="193" height="39" as="alternateBounds" />
          </mxGeometry>
        </mxCell>
        <mxCell id="tO5tG9X41Wg9TqtgTlxJ-100" value="&lt;span style=&quot;color: rgb(51, 153, 255);&quot;&gt;Details&lt;/span&gt;" style="shape=partialRectangle;html=1;whiteSpace=wrap;connectable=0;strokeColor=inherit;overflow=hidden;fillColor=none;top=0;left=0;bottom=0;right=0;pointerEvents=1;fontSize=16;" parent="tO5tG9X41Wg9TqtgTlxJ-96" vertex="1">
          <mxGeometry x="743" width="247" height="39" as="geometry">
            <mxRectangle width="247" height="39" as="alternateBounds" />
          </mxGeometry>
        </mxCell>
        <mxCell id="0OKqhLGBSDTET0gaC4oV-1" value="&lt;font style=&quot;font-size: 16px;&quot;&gt;Course:&lt;/font&gt;" style="text;html=1;align=center;verticalAlign=middle;whiteSpace=wrap;rounded=0;" parent="1" vertex="1">
          <mxGeometry x="290" y="210" width="60" height="30" as="geometry" />
        </mxCell>
        <mxCell id="0OKqhLGBSDTET0gaC4oV-2" value="&lt;font style=&quot;font-size: 20px;&quot;&gt;All&lt;/font&gt;" style="html=1;shadow=0;dashed=0;shape=mxgraph.bootstrap.rrect;rSize=5;strokeColor=none;strokeWidth=1;fillColor=#6C767D;fontColor=#ffffff;whiteSpace=wrap;align=right;verticalAlign=middle;fontStyle=0;fontSize=14;spacingRight=20;" parent="1" vertex="1">
          <mxGeometry x="350" y="208.5" width="140" height="35" as="geometry" />
        </mxCell>
        <mxCell id="0OKqhLGBSDTET0gaC4oV-3" value="" style="shape=triangle;direction=south;fillColor=#ffffff;strokeColor=none;perimeter=none;" parent="0OKqhLGBSDTET0gaC4oV-2" vertex="1">
          <mxGeometry x="1" y="0.5" width="10" height="5" relative="1" as="geometry">
            <mxPoint x="-17" y="-2.5" as="offset" />
          </mxGeometry>
        </mxCell>
        <mxCell id="0OKqhLGBSDTET0gaC4oV-4" value="&lt;font style=&quot;font-size: 16px;&quot;&gt;Apply&lt;/font&gt;" style="rounded=1;fillColor=#0057D8;strokeColor=none;html=1;whiteSpace=wrap;fontColor=#ffffff;align=center;verticalAlign=middle;fontStyle=0;fontSize=12;sketch=0;" parent="1" vertex="1">
          <mxGeometry x="520" y="209.5" width="86" height="33" as="geometry" />
        </mxCell>
        <mxCell id="I1E0HHeERDVE4gLx4jid-1" value="Add Section" style="html=1;shadow=0;dashed=0;shape=mxgraph.bootstrap.rrect;rSize=5;strokeColor=none;strokeWidth=1;fillColor=none;fontColor=#0085FC;whiteSpace=wrap;align=center;verticalAlign=middle;spacingLeft=0;fontStyle=0;fontSize=16;spacing=5;" parent="1" vertex="1">
          <mxGeometry x="40" y="260" width="95" height="40" as="geometry" />
        </mxCell>
        <mxCell id="y46b0PttftCKVksH8LLy-1" value="&lt;b&gt;&lt;font style=&quot;font-size: 16px;&quot;&gt;Section with ID 165 has been added successfully&lt;/font&gt;&lt;/b&gt;" style="rounded=0;whiteSpace=wrap;html=1;fillColor=#d5e8d4;strokeColor=#82b366;" parent="1" vertex="1">
          <mxGeometry x="20" y="140" width="1060" height="50" as="geometry" />
        </mxCell>
        <mxCell id="L8tXNnAAF8lNh-Flvi2a-1" value="Profile" style="text;html=1;points=[];align=left;verticalAlign=top;spacingTop=-4;fontSize=14;fontFamily=Verdana" vertex="1" parent="1">
          <mxGeometry x="1010" y="60" width="60" height="20" as="geometry" />
        </mxCell>
      </root>
    </mxGraphModel>
  </diagram>
</mxfile>
